<svg width="42" height="28" viewBox="0 0 42 28" fill="none" xmlns="http://www.w3.org/2000/svg">
<path d="M4.49078 10.144C3.56278 10.144 2.78678 9.944 2.16278 9.544C1.53878 9.144 1.07078 8.6 0.758781 7.912C0.446781 7.216 0.290781 6.428 0.290781 5.548C0.290781 4.7 0.458781 3.936 0.794781 3.256C1.13078 2.576 1.61478 2.04 2.24678 1.648C2.87878 1.248 3.63078 1.048 4.50278 1.048C4.79078 1.048 5.11078 1.08 5.46278 1.144C5.82278 1.2 6.17078 1.292 6.50678 1.42C6.84278 1.54 7.12278 1.7 7.34678 1.9L6.48278 3.004C6.25878 2.748 5.96278 2.552 5.59478 2.416C5.23478 2.28 4.89078 2.212 4.56278 2.212C4.09878 2.212 3.70678 2.308 3.38678 2.5C3.06678 2.684 2.81078 2.936 2.61878 3.256C2.42678 3.576 2.28678 3.932 2.19878 4.324C2.11878 4.708 2.07878 5.104 2.07878 5.512C2.07878 6.6 2.30278 7.448 2.75078 8.056C3.20678 8.664 3.83878 8.968 4.64678 8.968C4.98278 8.968 5.33878 8.924 5.71478 8.836C6.09078 8.74 6.48678 8.584 6.90278 8.368L7.39478 9.256C6.93078 9.552 6.47478 9.776 6.02678 9.928C5.58678 10.072 5.07478 10.144 4.49078 10.144ZM10.5871 3.892C11.2271 3.892 11.7191 4.056 12.0631 4.384C12.4151 4.704 12.5911 5.188 12.5911 5.836V8.464C12.5911 8.696 12.6271 8.852 12.6991 8.932C12.7711 9.012 12.8631 9.052 12.9751 9.052C13.1191 9.052 13.2751 9.02 13.4431 8.956L13.6711 9.772C13.4951 9.868 13.2951 9.944 13.0711 10C12.8471 10.064 12.6431 10.096 12.4591 10.096C12.1711 10.096 11.9391 10.036 11.7631 9.916C11.5871 9.796 11.4631 9.588 11.3911 9.292C11.1671 9.604 10.9031 9.824 10.5991 9.952C10.3031 10.072 9.96706 10.132 9.59106 10.132C9.12706 10.132 8.72706 10 8.39106 9.736C8.06306 9.464 7.89906 9.084 7.89906 8.596C7.89906 8.164 7.99906 7.812 8.19906 7.54C8.40706 7.26 8.67506 7.048 9.00306 6.904C9.33106 6.752 9.68306 6.648 10.0591 6.592C10.4431 6.536 10.8071 6.508 11.1511 6.508V5.728C11.1511 5.408 11.0831 5.188 10.9471 5.068C10.8111 4.948 10.5911 4.888 10.2871 4.888C10.0151 4.888 9.74306 4.964 9.47106 5.116C9.19906 5.268 8.95906 5.424 8.75106 5.584L8.16306 4.636C8.89106 4.14 9.69906 3.892 10.5871 3.892ZM11.1511 7.492C10.9831 7.492 10.7991 7.5 10.5991 7.516C10.3991 7.532 10.2071 7.572 10.0231 7.636C9.83906 7.7 9.68706 7.796 9.56706 7.924C9.45506 8.052 9.39906 8.228 9.39906 8.452C9.39906 8.636 9.47106 8.78 9.61506 8.884C9.76706 8.98 9.92706 9.028 10.0951 9.028C10.3191 9.028 10.5071 8.964 10.6591 8.836C10.8191 8.708 10.9391 8.548 11.0191 8.356C11.1071 8.156 11.1511 7.96 11.1511 7.768V7.492ZM16.3488 3.88C16.6288 3.88 16.9288 3.912 17.2488 3.976C17.5768 4.032 17.8648 4.124 18.1128 4.252L17.6088 5.26C17.2568 4.988 16.8608 4.852 16.4208 4.852C16.2208 4.852 16.0328 4.9 15.8568 4.996C15.6888 5.092 15.6048 5.256 15.6048 5.488C15.6048 5.688 15.6768 5.844 15.8208 5.956C15.9728 6.068 16.1608 6.168 16.3848 6.256C16.5768 6.328 16.7768 6.408 16.9848 6.496C17.1928 6.584 17.3888 6.692 17.5728 6.82C17.7568 6.948 17.9048 7.12 18.0168 7.336C18.1288 7.544 18.1848 7.812 18.1848 8.14C18.1848 8.564 18.0728 8.928 17.8488 9.232C17.6248 9.536 17.3328 9.768 16.9728 9.928C16.6208 10.088 16.2448 10.168 15.8448 10.168C15.5248 10.168 15.1808 10.12 14.8128 10.024C14.4528 9.928 14.1328 9.804 13.8528 9.652L14.3688 8.668C14.5768 8.788 14.7928 8.9 15.0168 9.004C15.2408 9.1 15.4768 9.148 15.7248 9.148C15.9648 9.148 16.1728 9.088 16.3488 8.968C16.5328 8.84 16.6248 8.644 16.6248 8.38C16.6248 8.124 16.5248 7.932 16.3248 7.804C16.1328 7.676 15.8968 7.56 15.6168 7.456C15.3688 7.36 15.1248 7.256 14.8848 7.144C14.6448 7.024 14.4448 6.856 14.2848 6.64C14.1248 6.424 14.0448 6.128 14.0448 5.752C14.0448 5.328 14.1568 4.98 14.3808 4.708C14.6128 4.428 14.9048 4.22 15.2568 4.084C15.6088 3.948 15.9728 3.88 16.3488 3.88ZM20.893 0.771999V4.6C21.125 4.408 21.393 4.24 21.697 4.096C22.001 3.944 22.309 3.868 22.621 3.868C23.085 3.868 23.445 3.956 23.701 4.132C23.957 4.308 24.137 4.556 24.241 4.876C24.345 5.188 24.397 5.552 24.397 5.968V10H22.945V6.112C22.945 5.928 22.929 5.752 22.897 5.584C22.873 5.416 22.805 5.28 22.693 5.176C22.589 5.064 22.421 5.008 22.189 5.008C22.069 5.008 21.921 5.044 21.745 5.116C21.577 5.188 21.413 5.276 21.253 5.38C21.101 5.476 20.981 5.572 20.893 5.668V10H19.465V1.42L19.321 0.771999H20.893ZM31.1331 10.144C30.5331 10.144 30.0171 10.008 29.5851 9.736C29.1611 9.456 28.8331 9.084 28.6011 8.62C28.3771 8.148 28.2651 7.624 28.2651 7.048C28.2651 6.472 28.3851 5.944 28.6251 5.464C28.8651 4.984 29.2051 4.6 29.6451 4.312C30.0931 4.024 30.6131 3.88 31.2051 3.88C31.8131 3.88 32.3291 4.02 32.7531 4.3C33.1771 4.572 33.5011 4.944 33.7251 5.416C33.9571 5.88 34.0731 6.4 34.0731 6.976C34.0731 7.552 33.9531 8.08 33.7131 8.56C33.4731 9.04 33.1331 9.424 32.6931 9.712C32.2611 10 31.7411 10.144 31.1331 10.144ZM31.1451 9.184C31.4251 9.184 31.6531 9.116 31.8291 8.98C32.0051 8.836 32.1411 8.656 32.2371 8.44C32.3331 8.216 32.3971 7.98 32.4291 7.732C32.4691 7.476 32.4891 7.24 32.4891 7.024C32.4891 6.8 32.4731 6.564 32.4411 6.316C32.4171 6.06 32.3611 5.824 32.2731 5.608C32.1851 5.384 32.0531 5.204 31.8771 5.068C31.7091 4.932 31.4811 4.864 31.1931 4.864C30.9211 4.864 30.6971 4.936 30.5211 5.08C30.3451 5.224 30.2091 5.408 30.1131 5.632C30.0171 5.856 29.9491 6.092 29.9091 6.34C29.8691 6.588 29.8491 6.816 29.8491 7.024C29.8491 7.24 29.8651 7.472 29.8971 7.72C29.9291 7.968 29.9891 8.204 30.0771 8.428C30.1651 8.652 30.2931 8.836 30.4611 8.98C30.6371 9.116 30.8651 9.184 31.1451 9.184ZM36.4147 3.904C36.4707 4.024 36.5147 4.152 36.5467 4.288C36.5787 4.416 36.6027 4.544 36.6187 4.672C36.8587 4.456 37.1387 4.268 37.4587 4.108C37.7867 3.948 38.1147 3.868 38.4427 3.868C38.9067 3.868 39.2667 3.956 39.5227 4.132C39.7787 4.308 39.9587 4.556 40.0627 4.876C40.1667 5.188 40.2187 5.552 40.2187 5.968V10H38.7667V6.112C38.7667 5.928 38.7507 5.752 38.7187 5.584C38.6947 5.416 38.6267 5.28 38.5147 5.176C38.4107 5.064 38.2427 5.008 38.0107 5.008C37.8907 5.008 37.7427 5.044 37.5667 5.116C37.3987 5.188 37.2347 5.276 37.0747 5.38C36.9227 5.476 36.8027 5.572 36.7147 5.668V10H35.2747V5.728C35.2747 5.584 35.2627 5.408 35.2387 5.2C35.2227 4.984 35.1867 4.772 35.1307 4.564C35.0747 4.356 34.9987 4.196 34.9027 4.084L36.4147 3.904ZM7.95297 20.62C7.95297 21.468 7.78097 22.224 7.43697 22.888C7.09297 23.544 6.60097 24.06 5.96097 24.436C5.32897 24.812 4.58097 25 3.71697 25H0.596969V16.948C0.596969 16.94 0.580969 16.88 0.548969 16.768C0.524969 16.656 0.496969 16.54 0.464969 16.42C0.432969 16.3 0.412969 16.232 0.404969 16.216H3.72897C4.62497 16.216 5.38497 16.404 6.00897 16.78C6.64097 17.148 7.12097 17.664 7.44897 18.328C7.78497 18.984 7.95297 19.748 7.95297 20.62ZM6.17697 20.668C6.17697 20.26 6.12897 19.864 6.03297 19.48C5.94497 19.088 5.79697 18.736 5.58897 18.424C5.38897 18.112 5.12497 17.864 4.79697 17.68C4.47697 17.496 4.08497 17.404 3.62097 17.404H2.25297V23.812H3.64497C4.25297 23.812 4.74097 23.664 5.10897 23.368C5.48497 23.064 5.75697 22.672 5.92497 22.192C6.09297 21.712 6.17697 21.204 6.17697 20.668ZM11.3636 18.868C11.9156 18.868 12.3676 18.988 12.7196 19.228C13.0796 19.468 13.3436 19.78 13.5116 20.164C13.6876 20.54 13.7756 20.944 13.7756 21.376C13.7756 21.656 13.7396 21.928 13.6676 22.192H10.0196C10.0196 22.832 10.1716 23.324 10.4756 23.668C10.7796 24.004 11.1756 24.172 11.6636 24.172C11.8956 24.172 12.1436 24.132 12.4076 24.052C12.6796 23.972 12.9596 23.848 13.2476 23.68L13.6316 24.496C13.3596 24.712 13.0156 24.872 12.5996 24.976C12.1916 25.08 11.8236 25.132 11.4956 25.132C10.8716 25.132 10.3356 25.004 9.88759 24.748C9.43959 24.492 9.09559 24.136 8.85559 23.68C8.61559 23.216 8.49559 22.676 8.49559 22.06C8.49559 21.5 8.60759 20.98 8.83159 20.5C9.06359 20.012 9.39159 19.62 9.81559 19.324C10.2476 19.02 10.7636 18.868 11.3636 18.868ZM11.3036 19.852C11.0396 19.852 10.8156 19.924 10.6316 20.068C10.4556 20.212 10.3196 20.392 10.2236 20.608C10.1276 20.824 10.0716 21.036 10.0556 21.244H12.2756C12.3156 21.012 12.3036 20.792 12.2396 20.584C12.1756 20.368 12.0636 20.192 11.9036 20.056C11.7436 19.92 11.5436 19.852 11.3036 19.852ZM16.3333 15.772V25H14.8693V16.42L14.7373 15.772H16.3333ZM19.549 16.864C19.549 17.112 19.461 17.328 19.285 17.512C19.109 17.696 18.893 17.788 18.637 17.788C18.389 17.788 18.173 17.696 17.989 17.512C17.805 17.328 17.713 17.112 17.713 16.864C17.713 16.608 17.805 16.392 17.989 16.216C18.173 16.04 18.389 15.952 18.637 15.952C18.893 15.952 19.109 16.04 19.285 16.216C19.461 16.392 19.549 16.608 19.549 16.864ZM19.345 19.036V25H17.905V19.684L17.773 19.036H19.345ZM21.6607 19.036L22.7527 22.18C22.8167 22.348 22.8647 22.516 22.8967 22.684C22.9367 22.844 22.9727 23.012 23.0047 23.188C23.0367 23.02 23.0647 22.852 23.0887 22.684C23.1127 22.508 23.1527 22.34 23.2087 22.18L24.3247 19.036H25.6207L23.5087 25.048H22.2127L20.1127 19.036H21.6607ZM28.5667 18.868C29.1187 18.868 29.5707 18.988 29.9227 19.228C30.2827 19.468 30.5467 19.78 30.7147 20.164C30.8907 20.54 30.9787 20.944 30.9787 21.376C30.9787 21.656 30.9427 21.928 30.8707 22.192H27.2227C27.2227 22.832 27.3747 23.324 27.6787 23.668C27.9827 24.004 28.3787 24.172 28.8667 24.172C29.0987 24.172 29.3467 24.132 29.6107 24.052C29.8827 23.972 30.1627 23.848 30.4507 23.68L30.8347 24.496C30.5627 24.712 30.2187 24.872 29.8027 24.976C29.3947 25.08 29.0267 25.132 28.6987 25.132C28.0747 25.132 27.5387 25.004 27.0907 24.748C26.6427 24.492 26.2987 24.136 26.0587 23.68C25.8187 23.216 25.6987 22.676 25.6987 22.06C25.6987 21.5 25.8107 20.98 26.0347 20.5C26.2667 20.012 26.5947 19.62 27.0187 19.324C27.4507 19.02 27.9667 18.868 28.5667 18.868ZM28.5067 19.852C28.2427 19.852 28.0187 19.924 27.8347 20.068C27.6587 20.212 27.5227 20.392 27.4267 20.608C27.3307 20.824 27.2747 21.036 27.2587 21.244H29.4787C29.5187 21.012 29.5067 20.792 29.4427 20.584C29.3787 20.368 29.2667 20.192 29.1067 20.056C28.9467 19.92 28.7467 19.852 28.5067 19.852ZM33.2724 18.916C33.4484 19.316 33.5444 19.736 33.5604 20.176C33.7604 19.84 34.0404 19.548 34.4004 19.3C34.7604 19.044 35.1404 18.916 35.5404 18.916L35.3004 20.344C34.9484 20.344 34.6324 20.436 34.3524 20.62C34.0804 20.796 33.8204 21.072 33.5724 21.448V25H32.1324V20.644C32.1324 20.492 32.1204 20.316 32.0964 20.116C32.0724 19.908 32.0324 19.708 31.9764 19.516C31.9204 19.324 31.8444 19.164 31.7484 19.036L33.2724 18.916ZM37.2584 19.036C37.4504 19.588 37.6464 20.14 37.8464 20.692C38.0544 21.236 38.2464 21.788 38.4224 22.348C38.4624 22.484 38.4904 22.632 38.5064 22.792C38.5304 22.952 38.5584 23.104 38.5904 23.248C38.6144 23.104 38.6384 22.952 38.6624 22.792C38.6864 22.632 38.7184 22.484 38.7584 22.348C38.9344 21.788 39.1224 21.236 39.3224 20.692C39.5224 20.14 39.7184 19.588 39.9104 19.036H41.2304L39.1064 25.036C39.0024 25.332 38.8744 25.632 38.7224 25.936C38.5704 26.248 38.3904 26.532 38.1824 26.788C37.9744 27.052 37.7304 27.26 37.4504 27.412C37.1784 27.572 36.8624 27.652 36.5024 27.652H36.0584V26.632C36.1544 26.656 36.2584 26.668 36.3704 26.668C36.6744 26.668 36.9224 26.576 37.1144 26.392C37.3064 26.216 37.4624 25.996 37.5824 25.732C37.7024 25.468 37.7984 25.22 37.8704 24.988L35.7104 19.036H37.2584Z" fill="#4E4E4E"/>
</svg>
