<svg width="22" height="16" viewBox="0 0 22 16" fill="none" xmlns="http://www.w3.org/2000/svg">
<path d="M21.2143 13.6818H0.785714C0.57733 13.6818 0.37748 13.7416 0.23013 13.8482C0.0827804 13.9547 0 14.0993 0 14.25L0 15.3863C0 15.537 0.0827804 15.6815 0.23013 15.7881C0.37748 15.8946 0.57733 15.9545 0.785714 15.9545H21.2143C21.4227 15.9545 21.6225 15.8946 21.7699 15.7881C21.9172 15.6815 22 15.537 22 15.3863V14.25C22 14.0993 21.9172 13.9547 21.7699 13.8482C21.6225 13.7416 21.4227 13.6818 21.2143 13.6818ZM21.2143 9.13632H0.785714C0.57733 9.13632 0.37748 9.19618 0.23013 9.30274C0.0827804 9.40929 0 9.55381 0 9.7045L0 10.8409C0 10.9916 0.0827804 11.1361 0.23013 11.2426C0.37748 11.3492 0.57733 11.409 0.785714 11.409H21.2143C21.4227 11.409 21.6225 11.3492 21.7699 11.2426C21.9172 11.1361 22 10.9916 22 10.8409V9.7045C22 9.55381 21.9172 9.40929 21.7699 9.30274C21.6225 9.19618 21.4227 9.13632 21.2143 9.13632ZM21.2143 4.59086H0.785714C0.57733 4.59086 0.37748 4.65073 0.23013 4.75728C0.0827804 4.86384 0 5.00836 0 5.15905L0 6.29541C0 6.4461 0.0827804 6.59062 0.23013 6.69718C0.37748 6.80373 0.57733 6.86359 0.785714 6.86359H21.2143C21.4227 6.86359 21.6225 6.80373 21.7699 6.69718C21.9172 6.59062 22 6.4461 22 6.29541V5.15905C22 5.00836 21.9172 4.86384 21.7699 4.75728C21.6225 4.65073 21.4227 4.59086 21.2143 4.59086ZM21.2143 0.0454102H0.785714C0.57733 0.0454102 0.37748 0.105272 0.23013 0.211827C0.0827804 0.318381 0 0.462901 0 0.613592L0 1.74996C0 1.90065 0.0827804 2.04517 0.23013 2.15172C0.37748 2.25828 0.57733 2.31814 0.785714 2.31814H21.2143C21.4227 2.31814 21.6225 2.25828 21.7699 2.15172C21.9172 2.04517 22 1.90065 22 1.74996V0.613592C22 0.462901 21.9172 0.318381 21.7699 0.211827C21.6225 0.105272 21.4227 0.0454102 21.2143 0.0454102Z" fill="white"/>
</svg>
