<svg width="34" height="32" viewBox="0 0 34 32" fill="none" xmlns="http://www.w3.org/2000/svg">
<path d="M33.32 17.36C33.32 15.4852 31.7948 13.96 29.92 13.96H28.56V11.92C28.56 5.54567 23.3743 0.359985 17 0.359985C10.6257 0.359985 5.43999 5.54567 5.43999 11.92V13.96H4.07999C2.20523 13.96 0.679993 15.4852 0.679993 17.36V21.44C0.679993 23.3147 2.20523 24.84 4.07999 24.84H8.15999V13.96H6.79999V11.92C6.79999 6.29571 11.3757 1.71999 17 1.71999C22.6243 1.71999 27.2 6.29571 27.2 11.92V13.96H25.84V24.84H27.2V28.24C27.2 29.3647 26.2847 30.28 25.16 30.28H18.36V31.64H25.16C27.0348 31.64 28.56 30.1147 28.56 28.24V24.84H29.92C31.7948 24.84 33.32 23.3147 33.32 21.44V17.36ZM6.79999 23.48H4.07999C2.95527 23.48 2.03999 22.5647 2.03999 21.44V17.36C2.03999 16.2353 2.95527 15.32 4.07999 15.32H6.79999V23.48ZM31.96 21.44C31.96 22.5647 31.0447 23.48 29.92 23.48H27.2V15.32H29.92C31.0447 15.32 31.96 16.2353 31.96 17.36V21.44Z" fill="black"/>
</svg>
