<svg width="38" height="5" viewBox="0 0 38 5" fill="none" xmlns="http://www.w3.org/2000/svg">
<path d="M5.63535 4.86591V3.07883C5.63535 2.39378 5.13113 1.94701 4.26675 1.94701C3.83456 1.94701 3.36636 2.06615 3.04222 2.45335C2.79011 2.12572 2.42995 1.94701 1.88971 1.94701C1.52955 1.94701 1.1694 2.03636 0.88127 2.36399V2.00658H0.124939V4.86591H0.88127V3.28732C0.88127 2.78098 1.20541 2.5427 1.70963 2.5427C2.21385 2.5427 2.46596 2.81076 2.46596 3.28732V4.86591H3.2223V3.28732C3.2223 2.78098 3.58245 2.5427 4.05066 2.5427C4.55488 2.5427 4.80699 2.81076 4.80699 3.28732V4.86591H5.63535ZM16.8363 2.00658H15.6117V1.14282H14.8554V2.00658H14.1711V2.57249H14.8554V3.88302C14.8554 4.53828 15.1795 4.92548 16.0439 4.92548C16.3681 4.92548 16.7282 4.83613 16.9803 4.71699L16.7642 4.18086C16.5481 4.3 16.296 4.32979 16.1159 4.32979C15.7558 4.32979 15.6117 4.15108 15.6117 3.85323V2.57249H16.8363V2.00658ZM23.2471 1.94701C22.8149 1.94701 22.5268 2.12571 22.3467 2.36399V2.00658H21.5903V4.86591H22.3467V3.25754C22.3467 2.78098 22.5988 2.51292 23.067 2.51292C23.2111 2.51292 23.3911 2.5427 23.5352 2.57249L23.7513 1.97679C23.6072 1.94701 23.3911 1.94701 23.2471 1.94701ZM13.5588 2.24485C13.1987 2.03636 12.6944 1.94701 12.1542 1.94701C11.2898 1.94701 10.7136 2.30442 10.7136 2.87033C10.7136 3.34689 11.1458 3.61495 11.9021 3.70431L12.2623 3.73409C12.6584 3.79366 12.8745 3.88302 12.8745 4.03194C12.8745 4.24043 12.5864 4.38936 12.0822 4.38936C11.578 4.38936 11.1818 4.24043 10.9297 4.09151L10.5695 4.56807C10.9657 4.80634 11.5059 4.92548 12.0462 4.92548C13.0546 4.92548 13.6309 4.53828 13.6309 4.00215C13.6309 3.49581 13.1627 3.22775 12.4423 3.1384L12.0822 3.10861C11.758 3.07883 11.5059 3.01926 11.5059 2.84055C11.5059 2.63206 11.758 2.51292 12.1542 2.51292C12.5864 2.51292 13.0186 2.66184 13.2347 2.75119L13.5588 2.24485ZM33.6556 1.94701C33.2234 1.94701 32.9353 2.12571 32.7552 2.36399V2.00658H31.9989V4.86591H32.7552V3.25754C32.7552 2.78098 33.0073 2.51292 33.4756 2.51292C33.6196 2.51292 33.7997 2.5427 33.9438 2.57249L34.1599 1.97679C34.0158 1.94701 33.7997 1.94701 33.6556 1.94701ZM24.0034 3.43624C24.0034 4.3 24.7237 4.92548 25.8402 4.92548C26.3444 4.92548 26.7046 4.83613 27.0647 4.59785L26.7046 4.09151C26.4165 4.27022 26.1283 4.35957 25.8042 4.35957C25.1919 4.35957 24.7597 4.00215 24.7597 3.43624C24.7597 2.90012 25.1919 2.5427 25.8042 2.51292C26.1283 2.51292 26.4165 2.60227 26.7046 2.78098L27.0647 2.27464C26.7046 2.03636 26.3444 1.94701 25.8402 1.94701C24.7237 1.94701 24.0034 2.57249 24.0034 3.43624ZM30.9905 3.43624V2.00658H30.2341V2.36399C29.982 2.09593 29.6219 1.94701 29.1537 1.94701C28.1812 1.94701 27.4249 2.57249 27.4249 3.43624C27.4249 4.3 28.1812 4.92548 29.1537 4.92548C29.6579 4.92548 30.018 4.77656 30.2341 4.50849V4.86591H30.9905V3.43624ZM28.2172 3.43624C28.2172 2.9299 28.6134 2.51292 29.2617 2.51292C29.874 2.51292 30.3062 2.90012 30.3062 3.43624C30.3062 3.94258 29.874 4.35957 29.2617 4.35957C28.6134 4.32979 28.2172 3.94258 28.2172 3.43624ZM19.1773 1.94701C18.1688 1.94701 17.4485 2.5427 17.4485 3.43624C17.4485 4.32979 18.1688 4.92548 19.2133 4.92548C19.7175 4.92548 20.2217 4.80634 20.6179 4.53828L20.2578 4.09151C19.9696 4.27022 19.6095 4.38936 19.2493 4.38936C18.7811 4.38936 18.3129 4.21065 18.2049 3.70431H20.762V3.46603C20.798 2.5427 20.1497 1.94701 19.1773 1.94701ZM19.1773 2.48313C19.6455 2.48313 19.9696 2.72141 20.0417 3.16818H18.2409C18.3129 2.78098 18.6371 2.48313 19.1773 2.48313ZM37.9415 3.43624V0.874756H37.1852V2.36399C36.9331 2.09593 36.5729 1.94701 36.1047 1.94701C35.1323 1.94701 34.3759 2.57249 34.3759 3.43624C34.3759 4.3 35.1323 4.92548 36.1047 4.92548C36.6089 4.92548 36.9691 4.77656 37.1852 4.50849V4.86591H37.9415V3.43624ZM35.1683 3.43624C35.1683 2.9299 35.5645 2.51292 36.2127 2.51292C36.825 2.51292 37.2572 2.90012 37.2572 3.43624C37.2572 3.94258 36.825 4.35957 36.2127 4.35957C35.5645 4.32979 35.1683 3.94258 35.1683 3.43624ZM9.88521 3.43624V2.00658H9.12888V2.36399C8.87677 2.09593 8.51662 1.94701 8.04841 1.94701C7.07598 1.94701 6.31965 2.57249 6.31965 3.43624C6.31965 4.3 7.07598 4.92548 8.04841 4.92548C8.55263 4.92548 8.91279 4.77656 9.12888 4.50849V4.86591H9.88521V3.43624ZM7.07598 3.43624C7.07598 2.9299 7.47216 2.51292 8.12044 2.51292C8.73271 2.51292 9.1649 2.90012 9.1649 3.43624C9.1649 3.94258 8.73271 4.35957 8.12044 4.35957C7.47216 4.32979 7.07598 3.94258 7.07598 3.43624Z" fill="black"/>
</svg>
