<svg width="42" height="27" viewBox="0 0 42 27" fill="none" xmlns="http://www.w3.org/2000/svg">
<path d="M7.63535 26.8659V25.0788C7.63535 24.3938 7.13113 23.947 6.26675 23.947C5.83456 23.947 5.36636 24.0661 5.04222 24.4533C4.79011 24.1257 4.42995 23.947 3.88971 23.947C3.52955 23.947 3.1694 24.0364 2.88127 24.364V24.0066H2.12494V26.8659H2.88127V25.2873C2.88127 24.781 3.20541 24.5427 3.70963 24.5427C4.21385 24.5427 4.46596 24.8108 4.46596 25.2873V26.8659H5.2223V25.2873C5.2223 24.781 5.58245 24.5427 6.05066 24.5427C6.55488 24.5427 6.80699 24.8108 6.80699 25.2873V26.8659H7.63535ZM18.8363 24.0066H17.6117V23.1428H16.8554V24.0066H16.1711V24.5725H16.8554V25.883C16.8554 26.5383 17.1795 26.9255 18.0439 26.9255C18.3681 26.9255 18.7282 26.8361 18.9803 26.717L18.7642 26.1809C18.5481 26.3 18.296 26.3298 18.1159 26.3298C17.7558 26.3298 17.6117 26.1511 17.6117 25.8532V24.5725H18.8363V24.0066ZM25.2471 23.947C24.8149 23.947 24.5268 24.1257 24.3467 24.364V24.0066H23.5903V26.8659H24.3467V25.2575C24.3467 24.781 24.5988 24.5129 25.067 24.5129C25.2111 24.5129 25.3911 24.5427 25.5352 24.5725L25.7513 23.9768C25.6072 23.947 25.3911 23.947 25.2471 23.947ZM15.5588 24.2449C15.1987 24.0364 14.6944 23.947 14.1542 23.947C13.2898 23.947 12.7136 24.3044 12.7136 24.8703C12.7136 25.3469 13.1458 25.615 13.9021 25.7043L14.2623 25.7341C14.6584 25.7937 14.8745 25.883 14.8745 26.0319C14.8745 26.2404 14.5864 26.3894 14.0822 26.3894C13.578 26.3894 13.1818 26.2404 12.9297 26.0915L12.5695 26.5681C12.9657 26.8063 13.5059 26.9255 14.0462 26.9255C15.0546 26.9255 15.6309 26.5383 15.6309 26.0022C15.6309 25.4958 15.1627 25.2277 14.4423 25.1384L14.0822 25.1086C13.758 25.0788 13.5059 25.0193 13.5059 24.8405C13.5059 24.6321 13.758 24.5129 14.1542 24.5129C14.5864 24.5129 15.0186 24.6618 15.2347 24.7512L15.5588 24.2449ZM35.6556 23.947C35.2234 23.947 34.9353 24.1257 34.7552 24.364V24.0066H33.9989V26.8659H34.7552V25.2575C34.7552 24.781 35.0073 24.5129 35.4756 24.5129C35.6196 24.5129 35.7997 24.5427 35.9438 24.5725L36.1599 23.9768C36.0158 23.947 35.7997 23.947 35.6556 23.947ZM26.0034 25.4362C26.0034 26.3 26.7237 26.9255 27.8402 26.9255C28.3444 26.9255 28.7046 26.8361 29.0647 26.5978L28.7046 26.0915C28.4165 26.2702 28.1283 26.3596 27.8042 26.3596C27.1919 26.3596 26.7597 26.0022 26.7597 25.4362C26.7597 24.9001 27.1919 24.5427 27.8042 24.5129C28.1283 24.5129 28.4165 24.6023 28.7046 24.781L29.0647 24.2746C28.7046 24.0364 28.3444 23.947 27.8402 23.947C26.7237 23.947 26.0034 24.5725 26.0034 25.4362ZM32.9905 25.4362V24.0066H32.2341V24.364C31.982 24.0959 31.6219 23.947 31.1537 23.947C30.1812 23.947 29.4249 24.5725 29.4249 25.4362C29.4249 26.3 30.1812 26.9255 31.1537 26.9255C31.6579 26.9255 32.018 26.7766 32.2341 26.5085V26.8659H32.9905V25.4362ZM30.2172 25.4362C30.2172 24.9299 30.6134 24.5129 31.2617 24.5129C31.874 24.5129 32.3062 24.9001 32.3062 25.4362C32.3062 25.9426 31.874 26.3596 31.2617 26.3596C30.6134 26.3298 30.2172 25.9426 30.2172 25.4362ZM21.1773 23.947C20.1688 23.947 19.4485 24.5427 19.4485 25.4362C19.4485 26.3298 20.1688 26.9255 21.2133 26.9255C21.7175 26.9255 22.2217 26.8063 22.6179 26.5383L22.2578 26.0915C21.9696 26.2702 21.6095 26.3894 21.2493 26.3894C20.7811 26.3894 20.3129 26.2106 20.2049 25.7043H22.762V25.466C22.798 24.5427 22.1497 23.947 21.1773 23.947ZM21.1773 24.4831C21.6455 24.4831 21.9696 24.7214 22.0417 25.1682H20.2409C20.3129 24.781 20.6371 24.4831 21.1773 24.4831ZM39.9415 25.4362V22.8748H39.1852V24.364C38.9331 24.0959 38.5729 23.947 38.1047 23.947C37.1323 23.947 36.3759 24.5725 36.3759 25.4362C36.3759 26.3 37.1323 26.9255 38.1047 26.9255C38.6089 26.9255 38.9691 26.7766 39.1852 26.5085V26.8659H39.9415V25.4362ZM37.1683 25.4362C37.1683 24.9299 37.5645 24.5129 38.2127 24.5129C38.825 24.5129 39.2572 24.9001 39.2572 25.4362C39.2572 25.9426 38.825 26.3596 38.2127 26.3596C37.5645 26.3298 37.1683 25.9426 37.1683 25.4362ZM11.8852 25.4362V24.0066H11.1289V24.364C10.8768 24.0959 10.5166 23.947 10.0484 23.947C9.07598 23.947 8.31965 24.5725 8.31965 25.4362C8.31965 26.3 9.07598 26.9255 10.0484 26.9255C10.5526 26.9255 10.9128 26.7766 11.1289 26.5085V26.8659H11.8852V25.4362ZM9.07598 25.4362C9.07598 24.9299 9.47216 24.5129 10.1204 24.5129C10.7327 24.5129 11.1649 24.9001 11.1649 25.4362C11.1649 25.9426 10.7327 26.3596 10.1204 26.3596C9.47216 26.3298 9.07598 25.9426 9.07598 25.4362Z" fill="black"/>
<path d="M26.6517 2.29346H15.3067V19.1516H26.6517V2.29346Z" fill="#FF5F00"/>
<path d="M16.027 10.7225C16.027 7.29727 17.9719 4.25922 20.9612 2.29343C18.7642 0.863758 15.991 0 12.9657 0C5.79854 0 0 4.79535 0 10.7225C0 16.6497 5.79854 21.445 12.9657 21.445C15.991 21.445 18.7642 20.5813 20.9612 19.1516C17.9719 17.2156 16.027 14.1478 16.027 10.7225Z" fill="#EB001B"/>
<path d="M41.9584 10.7225C41.9584 16.6497 36.1598 21.445 28.9927 21.445C25.9674 21.445 23.1942 20.5813 20.9972 19.1516C24.0225 17.1858 25.9314 14.1478 25.9314 10.7225C25.9314 7.29727 23.9865 4.25922 20.9972 2.29343C23.1942 0.863758 25.9674 0 28.9927 0C36.1598 0 41.9584 4.82513 41.9584 10.7225Z" fill="#F79E1B"/>
</svg>
