<svg width="43" height="27" viewBox="0 0 43 27" fill="none" xmlns="http://www.w3.org/2000/svg">
<g clip-path="url(#clip0)">
<path d="M32.6726 4.89474C31.726 4.32886 30.3534 4.14483 29.1213 4.4186C28.7729 4.49171 28.5191 4.68138 28.4646 4.90947L28.1909 6.09008C27.776 7.87328 25.3461 9.19759 22.476 9.20478H18.567C18.1185 9.20484 17.7276 9.39663 17.6191 9.66988L14.6874 17.0332C14.5567 17.3621 14.8754 17.6951 15.399 17.7771C15.4763 17.7892 15.5556 17.7953 15.6352 17.7953H20.5214C20.9699 17.7953 21.3608 17.6035 21.4693 17.3302L23.2382 12.8865H27.0494C29.975 12.8926 32.5273 11.6404 33.2255 9.85644L33.9467 8.04137C34.4544 6.9249 33.9677 5.72335 32.6726 4.89474Z" fill="#03A9F4"/>
<path d="M0.976992 25.1587C0.437283 25.1587 -0.000183174 24.8839 5.75387e-08 24.545C5.75387e-08 24.495 0.00980296 24.4452 0.0290423 24.3967L1.00631 21.9545V21.9288L1.98358 19.4878C2.09214 19.2146 2.48297 19.0228 2.93152 19.0227H5.41761C6.76693 19.0225 7.86092 19.7092 7.86128 20.5564C7.86128 20.6819 7.83682 20.8069 7.78845 20.9286L7.54411 21.5422C7.27228 22.2254 6.29474 22.7046 5.17336 22.7044H2.71843L1.92686 24.6938C1.81812 24.9674 1.42618 25.1593 0.976992 25.1587ZM3.20701 21.4771H5.17318C5.39737 21.4767 5.59232 21.3805 5.64619 21.2439L5.89053 20.6303C5.95751 20.4668 5.80066 20.3002 5.54038 20.2583C5.50025 20.2518 5.45902 20.2485 5.41752 20.2486H3.6956L3.20701 21.4771Z" fill="#283593"/>
<path d="M11.4275 25.1588H10.036C8.53987 25.159 7.32678 24.3977 7.32642 23.4583C7.32632 23.3191 7.35353 23.1805 7.40722 23.0455L7.53622 22.719C7.82545 21.9864 8.87491 21.4729 10.077 21.4758H11.4686C12.9646 21.4775 14.1753 22.2403 14.1728 23.1797C14.1724 23.3182 14.1451 23.4561 14.0915 23.5903L13.9625 23.9168C13.673 24.6477 12.6268 25.1602 11.4275 25.1588ZM9.30495 23.3437C9.20454 23.5976 9.45099 23.8546 9.85538 23.9176C9.91447 23.9268 9.97503 23.9315 10.036 23.9316H11.4275C11.7288 23.9321 11.9918 23.8035 12.0647 23.6198L12.1937 23.2934C12.2941 23.0395 12.0477 22.7826 11.6433 22.7195C11.5842 22.7103 11.5236 22.7056 11.4627 22.7055H10.0711C9.76981 22.705 9.50687 22.8336 9.43395 23.0173L9.30495 23.3437Z" fill="#283593"/>
<path d="M12.7038 25.1588C12.1641 25.1587 11.7267 24.8839 11.7268 24.545C11.7268 24.495 11.7366 24.4452 11.7558 24.3967L12.7331 21.9423C12.8638 21.6132 13.3944 21.4129 13.9185 21.4949C14.4426 21.577 14.7616 21.9102 14.6309 22.2393L13.6537 24.6937C13.5449 24.9675 13.153 25.1594 12.7038 25.1588Z" fill="#283593"/>
<path d="M24.4307 25.1586C23.891 25.1584 23.4536 24.8836 23.4537 24.5448C23.4537 24.4948 23.4635 24.4449 23.4827 24.3965L24.46 21.9543V21.9285L25.4373 19.4876C25.5458 19.2143 25.9366 19.0225 26.3852 19.0225H28.8713C30.2206 19.0223 31.3146 19.7089 31.315 20.5562C31.315 20.6816 31.2905 20.8066 31.2421 20.9284L30.9978 21.542C30.726 22.2251 29.7484 22.7043 28.627 22.7042H26.1722L25.3806 24.6935C25.2718 24.9672 24.8799 25.1591 24.4307 25.1586ZM26.6607 21.4769H28.6289C28.8531 21.4765 29.048 21.3803 29.1019 21.2437L29.3462 20.6301C29.4131 20.4667 29.2564 20.3001 28.9961 20.2581C28.9559 20.2516 28.9146 20.2483 28.8732 20.2485H27.1494L26.6607 21.4769Z" fill="#03A9F4"/>
<path d="M34.8812 25.1585H33.4897C31.9936 25.1588 30.7805 24.3974 30.7802 23.458C30.7801 23.3189 30.8073 23.1802 30.861 23.0453L30.99 22.7188C31.2792 21.9861 32.3286 21.4727 33.5307 21.4756H34.9223C36.4184 21.4754 37.6315 22.2367 37.6318 23.1761C37.6319 23.3153 37.6047 23.4539 37.551 23.5889L37.422 23.9153C37.1328 24.648 36.0833 25.1615 34.8812 25.1585ZM32.7587 23.3435C32.6583 23.5974 32.9047 23.8543 33.3091 23.9174C33.3682 23.9266 33.4288 23.9312 33.4897 23.9313H34.8812C35.1826 23.9319 35.4455 23.8032 35.5184 23.6196L35.6474 23.2931C35.7478 23.0392 35.5014 22.7823 35.097 22.7193C35.0379 22.7101 34.9773 22.7054 34.9164 22.7053H33.5249C33.2235 22.7048 32.9606 22.8334 32.8877 23.017L32.7587 23.3435Z" fill="#03A9F4"/>
<path d="M36.1575 25.1586C35.6178 25.1585 35.1805 24.8837 35.1805 24.5448C35.1805 24.4948 35.1903 24.445 35.2096 24.3965L36.1869 21.942C36.3175 21.613 36.8481 21.4127 37.3723 21.4947C37.8963 21.5767 38.2153 21.9099 38.0847 22.239L37.1074 24.6935C36.9987 24.9672 36.6067 25.1591 36.1575 25.1586Z" fill="#03A9F4"/>
<path d="M18.5672 24.5452C18.2403 24.545 17.9352 24.4424 17.7541 24.2715L15.7997 22.4307C15.5001 22.1487 15.6213 21.7677 16.0704 21.5796C16.5195 21.3915 17.1263 21.4676 17.4259 21.7496L19.3803 23.5904C19.6803 23.8721 19.56 24.2532 19.1114 24.4416C18.9503 24.5092 18.7609 24.5452 18.5672 24.5452Z" fill="#283593"/>
<path d="M16.6133 26.3871C16.0735 26.387 15.6362 26.1121 15.6364 25.7732C15.6364 25.6298 15.7165 25.4909 15.8627 25.3807L20.7489 21.699C21.0948 21.4388 21.7113 21.4039 22.1258 21.6211C22.5402 21.8383 22.5959 22.2254 22.2499 22.4857L17.3638 26.1673C17.1779 26.3068 16.9029 26.3873 16.6133 26.3871Z" fill="#283593"/>
<path d="M40.0663 25.1587C39.5266 25.1586 39.0893 24.8837 39.0894 24.5449C39.0894 24.4949 39.0992 24.4451 39.1184 24.3966L41.0728 19.4877C41.2035 19.1586 41.7341 18.9583 42.2583 19.0403C42.7823 19.1224 43.1013 19.4556 42.9707 19.7847L41.0162 24.6936C40.9076 24.9673 40.5156 25.1592 40.0663 25.1587Z" fill="#03A9F4"/>
<path d="M29.4458 1.67579C28.5068 1.00049 27.1483 0.613396 25.7206 0.614259H14.6583C14.1856 0.614259 13.7808 0.826646 13.6967 1.11865L9.78769 14.6181C9.69159 14.9516 10.0443 15.2708 10.5754 15.3311C10.6328 15.3376 10.691 15.3409 10.7493 15.3409H16.6127C17.0613 15.3409 17.4521 15.1491 17.5607 14.8758L19.3314 10.432H22.4761C26.3201 10.4225 29.5743 8.64803 30.1279 6.25948L30.6165 4.16213C30.8179 3.26605 30.3909 2.35909 29.4458 1.67579Z" fill="#283593"/>
</g>
<defs>
<clipPath id="clip0">
<rect width="43" height="27" fill="white"/>
</clipPath>
</defs>
</svg>
