<svg width="34" height="33" viewBox="0 0 34 33" fill="none" xmlns="http://www.w3.org/2000/svg">
<path d="M17 16.5C22.3656 16.5 26.7143 12.8068 26.7143 8.25C26.7143 3.69316 22.3656 0 17 0C11.6344 0 7.28571 3.69316 7.28571 8.25C7.28571 12.8068 11.6344 16.5 17 16.5ZM24.2705 18.6012L20.6429 30.9375L18.2143 22.1719L20.6429 18.5625H13.3571L15.7857 22.1719L13.3571 30.9375L9.72946 18.6012C4.3183 18.8203 0 22.5779 0 27.225V29.9062C0 31.6143 1.6317 33 3.64286 33H30.3571C32.3683 33 34 31.6143 34 29.9062V27.225C34 22.5779 29.6817 18.8203 24.2705 18.6012Z" fill="#08BD99"/>
</svg>
