<svg width="47" height="15" viewBox="0 0 47 15" fill="none" xmlns="http://www.w3.org/2000/svg">
<path d="M5.98828 9.79492H3.6543V15H0.724609V0.78125H6.00781C7.6875 0.78125 8.98307 1.1556 9.89453 1.9043C10.806 2.65299 11.2617 3.71094 11.2617 5.07812C11.2617 6.04818 11.0501 6.85872 10.627 7.50977C10.2103 8.1543 9.57552 8.66862 8.72266 9.05273L11.7988 14.8633V15H8.6543L5.98828 9.79492ZM3.6543 7.42188H6.01758C6.75326 7.42188 7.32292 7.23633 7.72656 6.86523C8.13021 6.48763 8.33203 5.97005 8.33203 5.3125C8.33203 4.64193 8.13997 4.11458 7.75586 3.73047C7.37826 3.34635 6.79557 3.1543 6.00781 3.1543H3.6543V7.42188ZM22.0527 8.83789H16.4277V12.6465H23.0293V15H13.498V0.78125H23.0098V3.1543H16.4277V6.54297H22.0527V8.83789ZM24.748 15V0.78125H29.123C30.373 0.78125 31.4896 1.06445 32.4727 1.63086C33.4622 2.19076 34.2337 2.99154 34.7871 4.0332C35.3405 5.06836 35.6172 6.24674 35.6172 7.56836V8.22266C35.6172 9.54427 35.3438 10.7194 34.7969 11.748C34.2565 12.7767 33.4915 13.5742 32.502 14.1406C31.5124 14.707 30.3958 14.9935 29.1523 15H24.748ZM27.6777 3.1543V12.6465H29.0938C30.2396 12.6465 31.1152 12.2721 31.7207 11.5234C32.3262 10.7747 32.6354 9.70378 32.6484 8.31055V7.55859C32.6484 6.11328 32.349 5.01953 31.75 4.27734C31.151 3.52865 30.2754 3.1543 29.123 3.1543H27.6777Z" fill="#FF2F2F"/>
<path d="M41.4961 7.91016L43.5078 4.43359H46.1445L42.9121 9.63867L46.252 15H43.6348L41.5254 11.3867L39.4258 15H36.7891L40.1289 9.63867L36.9062 4.43359H39.5234L41.4961 7.91016Z" fill="black"/>
</svg>
