<svg width="35" height="24" viewBox="0 0 35 24" fill="none" xmlns="http://www.w3.org/2000/svg">
<path d="M33.4669 19.5H20.5289C20.4894 20.4286 19.7439 21 18.7818 21H15.5374C14.5401 21 13.7754 20.1811 13.7888 19.5H1.02305C0.55347 19.5 0.169266 19.8375 0.169266 20.25V21C0.169266 22.65 1.70608 24 3.58441 24H30.9056C32.7839 24 34.3207 22.65 34.3207 21V20.25C34.3207 19.8375 33.9365 19.5 33.4669 19.5ZM30.9056 2.25C30.9056 1.0125 29.753 0 28.3442 0H6.14577C4.73702 0 3.58441 1.0125 3.58441 2.25V18H30.9056V2.25ZM27.4904 15H6.99956V3H27.4904V15Z" fill="#08BD99"/>
</svg>
