<svg width="34" height="27" viewBox="0 0 34 27" fill="none" xmlns="http://www.w3.org/2000/svg">
<path d="M33.15 18.5625H32.3V12.8619C32.3 12.1922 32.0291 11.5488 31.5509 11.0742L26.2438 5.80605C25.7656 5.33145 25.1175 5.0625 24.4428 5.0625H22.1V2.53125C22.1 1.13379 20.9578 0 19.55 0H5.95C4.54219 0 3.4 1.13379 3.4 2.53125V5.0625H0.425C0.19125 5.0625 0 5.25234 0 5.48438V6.32812C0 6.56016 0.19125 6.75 0.425 6.75H14.875C15.1088 6.75 15.3 6.93984 15.3 7.17188V8.01562C15.3 8.24766 15.1088 8.4375 14.875 8.4375H2.125C1.89125 8.4375 1.7 8.62734 1.7 8.85938V9.70312C1.7 9.93516 1.89125 10.125 2.125 10.125H13.175C13.4088 10.125 13.6 10.3148 13.6 10.5469V11.3906C13.6 11.6227 13.4088 11.8125 13.175 11.8125H0.425C0.19125 11.8125 0 12.0023 0 12.2344V13.0781C0 13.3102 0.19125 13.5 0.425 13.5H11.475C11.7088 13.5 11.9 13.6898 11.9 13.9219V14.7656C11.9 14.9977 11.7088 15.1875 11.475 15.1875H3.4V21.9375C3.4 24.7324 5.68437 27 8.5 27C11.3156 27 13.6 24.7324 13.6 21.9375H20.4C20.4 24.7324 22.6844 27 25.5 27C28.3156 27 30.6 24.7324 30.6 21.9375H33.15C33.6175 21.9375 34 21.5578 34 21.0938V19.4062C34 18.9422 33.6175 18.5625 33.15 18.5625ZM8.5 24.4688C7.09219 24.4688 5.95 23.335 5.95 21.9375C5.95 20.54 7.09219 19.4062 8.5 19.4062C9.90781 19.4062 11.05 20.54 11.05 21.9375C11.05 23.335 9.90781 24.4688 8.5 24.4688ZM25.5 24.4688C24.0922 24.4688 22.95 23.335 22.95 21.9375C22.95 20.54 24.0922 19.4062 25.5 19.4062C26.9078 19.4062 28.05 20.54 28.05 21.9375C28.05 23.335 26.9078 24.4688 25.5 24.4688ZM29.75 13.5H22.1V7.59375H24.4428L29.75 12.8619V13.5Z" fill="#08BD99"/>
</svg>
