<svg width="18" height="18" viewBox="0 0 18 18" fill="none" xmlns="http://www.w3.org/2000/svg">
<path d="M17.55 12.2738H17.1V8.79777C17.1 8.38939 16.9566 7.99709 16.7034 7.70769L13.8937 4.49535C13.6406 4.20595 13.2975 4.04195 12.9403 4.04195H11.7V2.49849C11.7 1.64636 11.0953 0.955017 10.35 0.955017H3.15C2.40469 0.955017 1.8 1.64636 1.8 2.49849V4.04195H0.225C0.10125 4.04195 0 4.15771 0 4.2992V4.81369C0 4.95517 0.10125 5.07093 0.225 5.07093H7.875C7.99875 5.07093 8.1 5.18669 8.1 5.32818V5.84267C8.1 5.98415 7.99875 6.09991 7.875 6.09991H1.125C1.00125 6.09991 0.9 6.21567 0.9 6.35716V6.87165C0.9 7.01313 1.00125 7.12889 1.125 7.12889H6.975C7.09875 7.12889 7.2 7.24465 7.2 7.38614V7.90063C7.2 8.04211 7.09875 8.15787 6.975 8.15787H0.225C0.10125 8.15787 0 8.27363 0 8.41512V8.92961C0 9.07109 0.10125 9.18685 0.225 9.18685H6.075C6.19875 9.18685 6.3 9.30261 6.3 9.4441V9.95858C6.3 10.1001 6.19875 10.2158 6.075 10.2158H1.8V14.3317C1.8 16.036 3.00937 17.4187 4.5 17.4187C5.99062 17.4187 7.2 16.036 7.2 14.3317H10.8C10.8 16.036 12.0094 17.4187 13.5 17.4187C14.9906 17.4187 16.2 16.036 16.2 14.3317H17.55C17.7975 14.3317 18 14.1002 18 13.8173V12.7883C18 12.5053 17.7975 12.2738 17.55 12.2738ZM4.5 15.8752C3.75469 15.8752 3.15 15.1839 3.15 14.3317C3.15 13.4796 3.75469 12.7883 4.5 12.7883C5.24531 12.7883 5.85 13.4796 5.85 14.3317C5.85 15.1839 5.24531 15.8752 4.5 15.8752ZM13.5 15.8752C12.7547 15.8752 12.15 15.1839 12.15 14.3317C12.15 13.4796 12.7547 12.7883 13.5 12.7883C14.2453 12.7883 14.85 13.4796 14.85 14.3317C14.85 15.1839 14.2453 15.8752 13.5 15.8752ZM15.75 9.18685H11.7V5.58542H12.9403L15.75 8.79777V9.18685Z" fill="white"/>
</svg>
