<svg width="35" height="29" viewBox="0 0 35 29" fill="none" xmlns="http://www.w3.org/2000/svg">
<path d="M27.0025 9.0625V7.25C27.0025 3.2523 22.6253 0 17.245 0C11.8646 0 7.48743 3.2523 7.48743 7.25V9.0625H0.169266V24.4688C0.169266 26.9713 2.89963 29 6.26774 29H28.2222C31.5904 29 34.3207 26.9713 34.3207 24.4688V9.0625H27.0025ZM12.3662 7.25C12.3662 5.25115 14.5548 3.625 17.245 3.625C19.9352 3.625 22.1238 5.25115 22.1238 7.25V9.0625H12.3662V7.25ZM24.5632 14.0469C23.5527 14.0469 22.7336 13.4383 22.7336 12.6875C22.7336 11.9367 23.5527 11.3281 24.5632 11.3281C25.5736 11.3281 26.3927 11.9367 26.3927 12.6875C26.3927 13.4383 25.5736 14.0469 24.5632 14.0469ZM9.92682 14.0469C8.91638 14.0469 8.09728 13.4383 8.09728 12.6875C8.09728 11.9367 8.91638 11.3281 9.92682 11.3281C10.9373 11.3281 11.7564 11.9367 11.7564 12.6875C11.7564 13.4383 10.9373 14.0469 9.92682 14.0469Z" fill="#08BD99"/>
</svg>
