<svg width="57" height="16" viewBox="0 0 57 16" fill="none" xmlns="http://www.w3.org/2000/svg">
<path d="M29.479 5.11512C29.4465 7.34387 31.764 8.58769 33.5099 9.32713C35.3036 10.0859 35.9061 10.5724 35.8993 11.2509C35.8856 12.2894 34.4684 12.7476 33.1419 12.7655C30.8278 12.7967 29.4825 12.2224 28.4127 11.788L27.5792 15.1787C28.6523 15.6087 30.6395 15.9836 32.7003 16C37.5373 16 40.7021 13.9245 40.7192 10.7063C40.738 6.62228 34.2202 6.39613 34.2647 4.57058C34.2801 4.01711 34.8877 3.42645 36.2194 3.27618C36.8783 3.2003 38.6978 3.14227 40.7603 3.96801L41.5698 0.687372C40.4607 0.336247 39.035 -1.46571e-07 37.26 -1.46571e-07C32.7071 -1.46571e-07 29.5047 2.10377 29.479 5.11512ZM49.3491 0.282685C48.4659 0.282685 47.7214 0.730519 47.3893 1.41789L40.4795 15.759H45.3131L46.2751 13.4484H52.1818L52.7398 15.759H57L53.2824 0.282685H49.3491ZM50.0252 4.46346L51.4202 10.2749H47.5998L50.0252 4.46346ZM23.6185 0.282685L19.8084 15.759H24.4144L28.2227 0.282685H23.6185ZM16.8046 0.282685L12.0104 10.8164L10.0711 1.85977C9.84346 0.859959 8.94487 0.282685 7.947 0.282685H0.109543L0 0.732006C1.60891 1.03552 3.43691 1.52501 4.54432 2.04873C5.22212 2.36861 5.41553 2.64832 5.63804 3.40859L9.31115 15.759H14.179L21.6416 0.282685H16.8046Z" fill="url(#paint0_linear)"/>
<defs>
<linearGradient id="paint0_linear" x1="26.2053" y1="16.321" x2="26.6079" y2="-0.114454" gradientUnits="userSpaceOnUse">
<stop stop-color="#222357"/>
<stop offset="1" stop-color="#254AA5"/>
</linearGradient>
</defs>
</svg>
