<svg width="27" height="23" viewBox="0 0 27 23" fill="none" xmlns="http://www.w3.org/2000/svg">
<path d="M23.445 3.18623C22.8704 2.61136 22.1882 2.15533 21.4373 1.8442C20.6864 1.53307 19.8816 1.37292 19.0688 1.37292C18.256 1.37292 17.4511 1.53307 16.7002 1.8442C15.9493 2.15533 15.2671 2.61136 14.6925 3.18623L13.5 4.37873L12.3075 3.18623C11.1469 2.02558 9.57267 1.37353 7.93126 1.37353C6.28985 1.37353 4.71567 2.02558 3.55501 3.18623C2.39436 4.34688 1.74231 5.92107 1.74231 7.56248C1.74231 9.20389 2.39436 10.7781 3.55501 11.9387L4.74751 13.1312L13.5 21.8837L22.2525 13.1312L23.445 11.9387C24.0199 11.3641 24.4759 10.6819 24.787 9.931C25.0982 9.18011 25.2583 8.37528 25.2583 7.56248C25.2583 6.74968 25.0982 5.94485 24.787 5.19395C24.4759 4.44306 24.0199 3.76083 23.445 3.18623V3.18623Z" stroke="black" stroke-width="2" stroke-linecap="round" stroke-linejoin="round"/>
</svg>
