<svg width="35" height="34" viewBox="0 0 35 34" fill="none" xmlns="http://www.w3.org/2000/svg">
<path d="M23.3385 10.625C22.3402 4.69492 19.9854 0.53125 17.245 0.53125C14.5046 0.53125 12.1498 4.69492 11.1514 10.625H23.3385ZM10.635 17C10.635 18.4742 10.7177 19.8887 10.8623 21.25H23.6208C23.7654 19.8887 23.8481 18.4742 23.8481 17C23.8481 15.5258 23.7654 14.1113 23.6208 12.75H10.8623C10.7177 14.1113 10.635 15.5258 10.635 17ZM32.9918 10.625C31.0226 6.11602 27.036 2.62969 22.1129 1.22187C23.793 3.46641 24.9497 6.84648 25.5556 10.625H32.9918ZM12.3701 1.22187C7.45399 2.62969 3.46047 6.11602 1.49814 10.625H8.93435C9.53337 6.84648 10.6901 3.46641 12.3701 1.22187ZM33.7286 12.75H25.8311C25.9756 14.1445 26.0583 15.5723 26.0583 17C26.0583 18.4277 25.9756 19.8555 25.8311 21.25H33.7217C34.1004 19.8887 34.3138 18.4742 34.3138 17C34.3138 15.5258 34.1004 14.1113 33.7286 12.75ZM8.43171 17C8.43171 15.5723 8.51434 14.1445 8.65893 12.75H0.761408C0.389598 14.1113 0.169266 15.5258 0.169266 17C0.169266 18.4742 0.389598 19.8887 0.761408 21.25H8.65205C8.51434 19.8555 8.43171 18.4277 8.43171 17ZM11.1514 23.375C12.1498 29.3051 14.5046 33.4688 17.245 33.4688C19.9854 33.4688 22.3402 29.3051 23.3385 23.375H11.1514ZM22.1198 32.7781C27.036 31.3703 31.0295 27.884 32.9987 23.375H25.5625C24.9566 27.1535 23.7999 30.5336 22.1198 32.7781ZM1.49814 23.375C3.46736 27.884 7.45399 31.3703 12.377 32.7781C10.697 30.5336 9.54026 27.1535 8.93435 23.375H1.49814Z" fill="#08BD99"/>
</svg>
